<svg xmlns="http://www.w3.org/2000/svg" viewBox="0 0 690 690" width="690" height="690">
	<style>
		tspan { white-space:pre }
		.shp0 { fill: #020202 } 
	</style>
	<path id="Path 0" fill-rule="evenodd" class="shp0" d="M345.15 75.14C345.52 75.89 345.64 76.95 345.42 77.5C345.19 78.05 346.66 79.63 348.67 81C352.07 83.33 352.28 83.75 351.66 87.25C351.16 90.11 351.35 91.12 352.5 91.5C353.38 91.79 353.96 93.13 353.91 94.75C353.86 96.26 354.14 100.42 354.54 104C354.94 107.58 355.83 111.63 356.52 113C357.2 114.38 358.11 117.97 358.52 121C358.94 124.03 361.02 130.66 363.14 135.75C365.26 140.84 367 146.13 367 147.5C367 148.88 367.5 152.14 368.11 154.75C369.07 158.83 368.96 160.06 367.36 163.47C366.27 165.81 365.53 169.51 365.57 172.47C365.62 175.57 366.46 179.04 367.78 181.5C368.95 183.7 371.39 187.14 373.21 189.15C375.02 191.16 381.9 197.3 388.5 202.78C395.1 208.27 401.69 214.05 403.15 215.63C404.6 217.21 406.98 220.3 408.43 222.5C409.88 224.7 411.05 227.51 411.03 228.75C411.01 229.99 410.1 231.45 409 232C407.9 232.55 404.64 233 396.5 233.01L397.5 250.79L392.99 255.14C390.51 257.54 385.34 261.76 381.49 264.52C375.9 268.54 374.53 270.04 374.63 272.02C374.7 273.39 375.5 276.98 376.4 280C377.31 283.02 378.38 287.27 378.78 289.42C379.18 291.62 380.16 293.5 381 293.71C382.11 293.98 382.83 296.85 383.79 304.79C384.5 310.68 385.78 322.48 386.64 331C387.5 339.52 388.38 348.19 389 354L478.17 354.25C536.53 354.41 567.44 354.85 567.63 355.5C567.79 356.05 537.8 378.77 500.97 406C464.14 433.23 434.01 455.84 434.01 456.25C434 456.66 439.87 475.79 447.04 498.75C454.22 521.71 465.35 557.26 471.79 577.74C480.91 606.75 483.24 615.26 482.31 616.24C481.37 617.24 467.25 607.12 414.81 567.89C378.34 540.6 347.6 517.7 346.5 517C344.68 515.83 338.59 520.15 277.5 565.99C240.65 593.65 209.71 616.44 208.75 616.64C207.79 616.84 207.01 616.44 207.02 615.75C207.03 615.06 211.95 598.75 217.96 579.5C223.96 560.25 235 524.48 242.48 500C249.97 475.52 255.96 455.43 255.8 455.34C255.63 455.26 238.63 442.71 218 427.45C197.38 412.2 167.35 390 151.28 378.11C135.21 366.22 122.2 356.05 122.36 355.5C122.56 354.85 152.18 354.41 207.92 354.24C291.61 353.99 293.2 353.95 295.08 351.99C296.14 350.9 297.94 350 299.1 350C300.25 350 302.73 348.43 304.6 346.5C307.05 343.98 308 342.09 308 339.75C308 337.96 308.46 334.93 309.02 333C309.59 331.07 310.92 323.65 311.99 316.5C313.06 309.35 314.23 301.93 314.61 300C314.98 298.07 315.67 295.94 316.14 295.25C316.61 294.56 316.77 293.32 316.5 292.5C316.23 291.68 316.5 289.09 317.11 286.75C317.72 284.41 318.59 281.6 319.03 280.5C319.48 279.4 320.07 274.45 320.35 269.5C320.68 263.49 321.68 258.18 323.36 253.5C325.07 248.7 325.83 244.61 325.75 240.5C325.68 236.95 326.42 232.14 327.57 228.71C329.28 223.58 329.34 222.55 328.11 219.71C327.35 217.94 325.6 213.35 324.23 209.5C322.85 205.65 321.5 199.35 321.22 195.5C320.93 191.33 321.26 186.28 322.06 183C322.79 179.97 323.27 176.6 323.13 175.5C323 174.4 323.81 172.26 324.94 170.75C326.07 169.24 327 167.1 327 166C327 164.9 327.89 163.44 328.99 162.75C330.93 161.53 330.89 161.33 327.39 154.5C325.33 150.46 323.59 145.39 323.29 142.5C322.83 138.16 323.11 137.07 325.38 134.25C326.82 132.46 329.24 130.74 330.75 130.43C332.26 130.12 335.07 130.51 337 131.29C338.93 132.08 341.23 133.57 342.12 134.61C343.02 135.65 344.29 138.3 344.95 140.5C345.61 142.7 346.45 144.14 346.82 143.7C347.2 143.25 346.9 138.98 346.18 134.2C345.45 129.41 344.4 123.7 343.85 121.5C343.3 119.3 342.4 115.25 341.86 112.5C341.32 109.75 340.79 105.85 340.69 103.84C340.57 101.63 339.62 99.26 338.27 97.84C337.05 96.55 336.03 94.94 336.02 94.25C336.01 93.56 337.16 92.44 338.57 91.75C340.54 90.79 341.01 89.98 340.57 88.25C340.26 87.01 340.7 83.64 341.55 80.75C342.41 77.86 343.41 75.11 343.79 74.64C344.16 74.17 344.77 74.4 345.15 75.14ZM340.01 282C339.53 283.93 338.41 286.18 337.52 287C336.64 287.82 335.93 289.06 335.96 289.75C335.98 290.44 335.15 292.69 334.1 294.75C333.06 296.81 331.89 301.2 331.5 304.5C331.11 307.8 329.74 315 328.46 320.5C327.18 326 325.47 332.3 324.66 334.5C323.53 337.58 323.39 340.11 324.06 345.5C324.54 349.35 324.95 352.84 324.97 353.25C324.99 353.66 334.34 353.96 345.75 353.92L366.5 353.83C372.57 346.74 373.69 344.3 374.21 340.58C374.75 336.74 374.19 331.84 371.93 320.5C370.29 312.25 368.22 303.48 367.33 301C366.44 298.52 364.95 295.82 364.02 295C363.09 294.18 360.94 291.02 359.24 288C357.54 284.98 354.87 279.4 353.32 275.61C351.77 271.82 350.2 268.56 349.84 268.36C349.48 268.16 347.31 270.36 345.03 273.25C342.76 276.14 340.49 280.07 340.01 282Z" />
</svg>